<svg width="165" height="23" viewBox="0 0 165 23" fill="none" xmlns="http://www.w3.org/2000/svg">
<g clip-path="url(#clip0_1_294)">
<path d="M43.0549 6.832L39.9349 18H37.2949L35.1989 10.048L33.0069 18L30.3829 18.016L27.3749 6.832H29.7749L31.7429 15.504L34.0149 6.832H36.5109L38.6549 15.456L40.6389 6.832H43.0549ZM43.9415 13.536C43.9415 12.64 44.1175 11.8453 44.4695 11.152C44.8322 10.4587 45.3175 9.92533 45.9255 9.552C46.5442 9.17867 47.2322 8.992 47.9895 8.992C48.6509 8.992 49.2269 9.12533 49.7175 9.392C50.2189 9.65867 50.6189 9.99467 50.9175 10.4V9.136H53.1735V18H50.9175V16.704C50.6295 17.12 50.2295 17.4667 49.7175 17.744C49.2162 18.0107 48.6349 18.144 47.9735 18.144C47.2269 18.144 46.5442 17.952 45.9255 17.568C45.3175 17.184 44.8322 16.6453 44.4695 15.952C44.1175 15.248 43.9415 14.4427 43.9415 13.536ZM50.9175 13.568C50.9175 13.024 50.8109 12.56 50.5975 12.176C50.3842 11.7813 50.0962 11.4827 49.7335 11.28C49.3709 11.0667 48.9815 10.96 48.5655 10.96C48.1495 10.96 47.7655 11.0613 47.4135 11.264C47.0615 11.4667 46.7735 11.7653 46.5495 12.16C46.3362 12.544 46.2295 13.0027 46.2295 13.536C46.2295 14.0693 46.3362 14.5387 46.5495 14.944C46.7735 15.3387 47.0615 15.6427 47.4135 15.856C47.7762 16.0693 48.1602 16.176 48.5655 16.176C48.9815 16.176 49.3709 16.0747 49.7335 15.872C50.0962 15.6587 50.3842 15.36 50.5975 14.976C50.8109 14.5813 50.9175 14.112 50.9175 13.568ZM57.9693 10.976V15.264C57.9693 15.5627 58.0386 15.7813 58.1773 15.92C58.3266 16.048 58.572 16.112 58.9133 16.112H59.9533V18H58.5453C56.6573 18 55.7133 17.0827 55.7133 15.248V10.976H54.6573V9.136H55.7133V6.944H57.9693V9.136H59.9533V10.976H57.9693ZM60.9884 13.568C60.9884 12.6507 61.1751 11.8507 61.5484 11.168C61.9218 10.4747 62.4391 9.94133 63.1004 9.568C63.7618 9.184 64.5191 8.992 65.3724 8.992C66.4711 8.992 67.3778 9.26933 68.0924 9.824C68.8178 10.368 69.3031 11.136 69.5484 12.128H67.1324C67.0044 11.744 66.7858 11.4453 66.4764 11.232C66.1778 11.008 65.8044 10.896 65.3564 10.896C64.7164 10.896 64.2098 11.1307 63.8364 11.6C63.4631 12.0587 63.2764 12.7147 63.2764 13.568C63.2764 14.4107 63.4631 15.0667 63.8364 15.536C64.2098 15.9947 64.7164 16.224 65.3564 16.224C66.2631 16.224 66.8551 15.8187 67.1324 15.008H69.5484C69.3031 15.968 68.8178 16.7307 68.0924 17.296C67.3671 17.8613 66.4604 18.144 65.3724 18.144C64.5191 18.144 63.7618 17.9573 63.1004 17.584C62.4391 17.2 61.9218 16.6667 61.5484 15.984C61.1751 15.2907 60.9884 14.4853 60.9884 13.568ZM76.1814 9.008C76.8534 9.008 77.4508 9.15733 77.9734 9.456C78.4961 9.744 78.9014 10.176 79.1894 10.752C79.4881 11.3173 79.6374 12 79.6374 12.8V18H77.3974V13.104C77.3974 12.4 77.2214 11.8613 76.8694 11.488C76.5174 11.104 76.0374 10.912 75.4294 10.912C74.8108 10.912 74.3201 11.104 73.9574 11.488C73.6054 11.8613 73.4294 12.4 73.4294 13.104V18H71.1894V6.16H73.4294V10.24C73.7174 9.856 74.1014 9.55733 74.5814 9.344C75.0614 9.12 75.5948 9.008 76.1814 9.008ZM88.188 10.976V15.264C88.188 15.5627 88.2574 15.7813 88.396 15.92C88.5454 16.048 88.7907 16.112 89.132 16.112H90.172V18H88.764C86.876 18 85.932 17.0827 85.932 15.248V10.976H84.876V9.136H85.932V6.944H88.188V9.136H90.172V10.976H88.188ZM96.7752 9.008C97.4472 9.008 98.0445 9.15733 98.5672 9.456C99.0898 9.744 99.4952 10.176 99.7832 10.752C100.082 11.3173 100.231 12 100.231 12.8V18H97.9912V13.104C97.9912 12.4 97.8152 11.8613 97.4632 11.488C97.1112 11.104 96.6312 10.912 96.0232 10.912C95.4045 10.912 94.9138 11.104 94.5512 11.488C94.1992 11.8613 94.0232 12.4 94.0232 13.104V18H91.7832V6.16H94.0232V10.24C94.3112 9.856 94.6952 9.55733 95.1752 9.344C95.6552 9.12 96.1885 9.008 96.7752 9.008ZM110.601 13.376C110.601 13.696 110.58 13.984 110.537 14.24H104.057C104.111 14.88 104.335 15.3813 104.729 15.744C105.124 16.1067 105.609 16.288 106.185 16.288C107.017 16.288 107.609 15.9307 107.961 15.216H110.377C110.121 16.0693 109.631 16.7733 108.905 17.328C108.18 17.872 107.289 18.144 106.233 18.144C105.38 18.144 104.612 17.9573 103.929 17.584C103.257 17.2 102.729 16.6613 102.345 15.968C101.972 15.2747 101.785 14.4747 101.785 13.568C101.785 12.6507 101.972 11.8453 102.345 11.152C102.719 10.4587 103.241 9.92533 103.913 9.552C104.585 9.17867 105.359 8.992 106.233 8.992C107.076 8.992 107.828 9.17333 108.489 9.536C109.161 9.89867 109.679 10.416 110.041 11.088C110.415 11.7493 110.601 12.512 110.601 13.376ZM108.281 12.736C108.271 12.16 108.063 11.7013 107.657 11.36C107.252 11.008 106.756 10.832 106.169 10.832C105.615 10.832 105.145 11.0027 104.761 11.344C104.388 11.6747 104.159 12.1387 104.073 12.736H108.281ZM126.081 6.832L121.985 18H119.265L115.169 6.832H117.569L120.641 15.712L123.697 6.832H126.081ZM128.56 8.08C128.165 8.08 127.834 7.95733 127.568 7.712C127.312 7.456 127.184 7.14133 127.184 6.768C127.184 6.39467 127.312 6.08533 127.568 5.84C127.834 5.584 128.165 5.456 128.56 5.456C128.954 5.456 129.28 5.584 129.536 5.84C129.802 6.08533 129.936 6.39467 129.936 6.768C129.936 7.14133 129.802 7.456 129.536 7.712C129.28 7.95733 128.954 8.08 128.56 8.08ZM129.664 9.136V18H127.424V9.136H129.664ZM131.301 13.536C131.301 12.64 131.477 11.8453 131.829 11.152C132.192 10.4587 132.682 9.92533 133.301 9.552C133.92 9.17867 134.608 8.992 135.365 8.992C135.941 8.992 136.49 9.12 137.013 9.376C137.536 9.62133 137.952 9.952 138.261 10.368V6.16H140.533V18H138.261V16.688C137.984 17.1253 137.594 17.4773 137.093 17.744C136.592 18.0107 136.01 18.144 135.349 18.144C134.602 18.144 133.92 17.952 133.301 17.568C132.682 17.184 132.192 16.6453 131.829 15.952C131.477 15.248 131.301 14.4427 131.301 13.536ZM138.277 13.568C138.277 13.024 138.17 12.56 137.957 12.176C137.744 11.7813 137.456 11.4827 137.093 11.28C136.73 11.0667 136.341 10.96 135.925 10.96C135.509 10.96 135.125 11.0613 134.773 11.264C134.421 11.4667 134.133 11.7653 133.909 12.16C133.696 12.544 133.589 13.0027 133.589 13.536C133.589 14.0693 133.696 14.5387 133.909 14.944C134.133 15.3387 134.421 15.6427 134.773 15.856C135.136 16.0693 135.52 16.176 135.925 16.176C136.341 16.176 136.73 16.0747 137.093 15.872C137.456 15.6587 137.744 15.36 137.957 14.976C138.17 14.5813 138.277 14.112 138.277 13.568ZM150.961 13.376C150.961 13.696 150.939 13.984 150.897 14.24H144.417C144.47 14.88 144.694 15.3813 145.089 15.744C145.483 16.1067 145.969 16.288 146.545 16.288C147.377 16.288 147.969 15.9307 148.321 15.216H150.737C150.481 16.0693 149.99 16.7733 149.265 17.328C148.539 17.872 147.649 18.144 146.593 18.144C145.739 18.144 144.971 17.9573 144.289 17.584C143.617 17.2 143.089 16.6613 142.705 15.968C142.331 15.2747 142.145 14.4747 142.145 13.568C142.145 12.6507 142.331 11.8453 142.705 11.152C143.078 10.4587 143.601 9.92533 144.273 9.552C144.945 9.17867 145.718 8.992 146.593 8.992C147.435 8.992 148.187 9.17333 148.849 9.536C149.521 9.89867 150.038 10.416 150.401 11.088C150.774 11.7493 150.961 12.512 150.961 13.376ZM148.641 12.736C148.63 12.16 148.422 11.7013 148.017 11.36C147.611 11.008 147.115 10.832 146.529 10.832C145.974 10.832 145.505 11.0027 145.121 11.344C144.747 11.6747 144.518 12.1387 144.433 12.736H148.641ZM156.532 18.144C155.678 18.144 154.91 17.9573 154.228 17.584C153.545 17.2 153.006 16.6613 152.612 15.968C152.228 15.2747 152.036 14.4747 152.036 13.568C152.036 12.6613 152.233 11.8613 152.628 11.168C153.033 10.4747 153.582 9.94133 154.276 9.568C154.969 9.184 155.742 8.992 156.596 8.992C157.449 8.992 158.222 9.184 158.916 9.568C159.609 9.94133 160.153 10.4747 160.548 11.168C160.953 11.8613 161.156 12.6613 161.156 13.568C161.156 14.4747 160.948 15.2747 160.532 15.968C160.126 16.6613 159.572 17.2 158.868 17.584C158.174 17.9573 157.396 18.144 156.532 18.144ZM156.532 16.192C156.937 16.192 157.316 16.096 157.668 15.904C158.03 15.7013 158.318 15.4027 158.532 15.008C158.745 14.6133 158.852 14.1333 158.852 13.568C158.852 12.7253 158.628 12.08 158.18 11.632C157.742 11.1733 157.204 10.944 156.564 10.944C155.924 10.944 155.385 11.1733 154.948 11.632C154.521 12.08 154.308 12.7253 154.308 13.568C154.308 14.4107 154.516 15.0613 154.932 15.52C155.358 15.968 155.892 16.192 156.532 16.192Z" fill="#02897A"/>
<path d="M27.0229 19.6H161.7V20.4H27.0229V19.6Z" fill="#02897A"/>
<path fill-rule="evenodd" clip-rule="evenodd" d="M16.6904 10.5261C17.4396 10.9592 17.4396 12.0408 16.6904 12.4739L2.76695 20.524C2.01695 20.9576 1.07885 20.4164 1.07885 19.5501V3.44993C1.07885 2.5836 2.01695 2.04238 2.76695 2.476L16.6904 10.5261Z" fill="#02897A"/>
</g>
<defs>
<clipPath id="clip0_1_294">
<rect width="163.804" height="23" fill="white" transform="translate(0.570129)"/>
</clipPath>
</defs>
</svg>
