<svg width="50" height="51" viewBox="0 0 50 51" fill="none" xmlns="http://www.w3.org/2000/svg">
<rect width="50" height="51" fill="#E5E5E5"/>
<g clip-path="url(#clip0_0_1)">
<rect width="1400" height="3649" transform="translate(-147 -936)" fill="white"/>
<g clip-path="url(#clip1_0_1)">
<path fill-rule="evenodd" clip-rule="evenodd" d="M545.343 381.829C60.738 382.422 -425.12 108.867 -567.409 21.8361C-580.049 14.1049 -574.495 -4.45392 -559.678 -4.47208L1664.89 -7.19666C1679.75 -7.21484 1685.32 11.4038 1672.62 19.1203C1528.79 106.532 1037.69 381.226 545.343 381.829Z" fill="url(#paint0_linear_0_1)"/>
<g clip-path="url(#clip2_0_1)" filter="url(#filter0_d_0_1)">
<rect y="0.830078" width="50" height="50" rx="19" fill="#02897A"/>
<path d="M29.1161 27.4283L19.9732 18.2854C19.8661 18.1694 19.7232 18.1158 19.5714 18.1158C19.5 18.1158 19.4196 18.1336 19.3571 18.1604C19.1429 18.2497 19 18.4551 19 18.6872V32.1158C19 32.3479 19.1429 32.5533 19.3571 32.6426C19.4196 32.6694 19.5 32.6872 19.5714 32.6872C19.7232 32.6872 19.8661 32.6247 19.9732 32.5176L22.7589 29.7319L24.4643 33.7676C24.5893 34.0533 24.9196 34.1961 25.2143 34.0711L26.7946 33.4015C27.0804 33.2765 27.2232 32.9461 27.0982 32.6515L25.3036 28.4015H28.7143C28.9464 28.4015 29.1518 28.2586 29.2411 28.0444C29.3304 27.839 29.2857 27.589 29.1161 27.4283Z" fill="white"/>
</g>
</g>
</g>
<defs>
<filter id="filter0_d_0_1" x="-4" y="0.830078" width="59" height="58" filterUnits="userSpaceOnUse" color-interpolation-filters="sRGB">
<feFlood flood-opacity="0" result="BackgroundImageFix"/>
<feColorMatrix in="SourceAlpha" type="matrix" values="0 0 0 0 0 0 0 0 0 0 0 0 0 0 0 0 0 0 127 0" result="hardAlpha"/>
<feOffset dy="4"/>
<feGaussianBlur stdDeviation="2"/>
<feColorMatrix type="matrix" values="0 0 0 0 0 0 0 0 0 0 0 0 0 0 0 0 0 0 0.25 0"/>
<feBlend mode="normal" in2="BackgroundImageFix" result="effect1_dropShadow_0_1"/>
<feBlend mode="normal" in="SourceGraphic" in2="effect1_dropShadow_0_1" result="shape"/>
</filter>
<linearGradient id="paint0_linear_0_1" x1="1672.9" y1="380.519" x2="1672.44" y2="-8.498" gradientUnits="userSpaceOnUse">
<stop stop-color="#EDEDED"/>
<stop offset="1" stop-color="white" stop-opacity="0.01"/>
</linearGradient>
<clipPath id="clip0_0_1">
<rect width="1400" height="3649" fill="white" transform="translate(-147 -936)"/>
</clipPath>
<clipPath id="clip1_0_1">
<rect width="2211" height="543" fill="white" transform="translate(-553 -161.17)"/>
</clipPath>
<clipPath id="clip2_0_1">
<rect width="51" height="50" fill="white" transform="translate(0 0.830078)"/>
</clipPath>
</defs>
</svg>
